<?xml version="1.0" encoding="UTF-8"?>
<!DOCTYPE svg PUBLIC "-//W3C//DTD SVG 1.0//EN" "http://www.w3.org/TR/2001/REC-SVG-20010904/DTD/svg10.dtd">
<!-- Creator: CorelDRAW 2019 (64-Bit) -->
<svg xmlns="http://www.w3.org/2000/svg" xml:space="preserve" width="5.6886mm" height="4.1012mm" version="1.0" style="shape-rendering:geometricPrecision; text-rendering:geometricPrecision; image-rendering:optimizeQuality; fill-rule:evenodd; clip-rule:evenodd"
viewBox="0 0 119 86"
 xmlns:xlink="http://www.w3.org/1999/xlink"
 xmlns:xodm="http://www.corel.com/coreldraw/odm/2003">
 <defs>
  <style type="text/css">
   <![CDATA[
    .str0 {stroke:#808185;stroke-width:8;stroke-linecap:round;stroke-linejoin:round;stroke-miterlimit:22.9256}
    .fil0 {fill:none}
   ]]>
  </style>
 </defs>
 <g id="Слой_x0020_1">
  <metadata id="CorelCorpID_0Corel-Layer"/>
  <path class="fil0 str0" d="M53 5c2,0 5,0 7,0 26,0 47,16 55,39 -2,6 -5,11 -9,15m-77 -46c-11,7 -20,18 -25,30 9,23 30,39 55,39 11,0 22,-3 30,-8m-42 -42c-3,3 -5,7 -5,12 0,9 7,17 17,17 5,0 9,-2 12,-5"/>
  <path class="fil0 str0" d="M67 81c-2,0 -5,0 -7,0 -26,0 -47,-16 -55,-39 2,-6 5,-11 9,-15m77 46c11,-7 20,-18 25,-30 -9,-23 -30,-39 -55,-39 -11,0 -22,3 -30,8m42 42c3,-3 5,-7 5,-12 0,-9 -7,-17 -17,-17 -5,0 -9,2 -12,5"/>
 </g>
</svg>
